<?xml version="1.0" encoding="UTF-8"?>
<svg xmlns="http://www.w3.org/2000/svg" viewBox="0 0 512 512" width="512" height="512">
  <defs>
    <clipPath id="circle-clip">
      <circle cx="256" cy="256" r="240"/>
    </clipPath>
  </defs>
  <circle cx="256" cy="256" r="240" fill="#0a1628"/>
  <circle cx="256" cy="256" r="240" fill="none" stroke="#d4af37" stroke-width="4"/>
  <g clip-path="url(#circle-clip)" transform="translate(256,256) scale(1.4) translate(-256,-256)">
    <!-- Shield -->
    <path d="M256 146 L336 186 L336 296 L256 366 L176 296 L176 186 Z" fill="none" stroke="#d4af37" stroke-width="8" stroke-linejoin="round"/>
    <!-- Dollar sign -->
    <path d="M256 200 L256 210 M256 320 L256 330" stroke="#d4af37" stroke-width="7" stroke-linecap="round"/>
    <path d="M230 230 C230 218 242 210 256 210 C270 210 282 218 282 230 C282 245 256 248 256 265 C256 278 242 285 256 285 C270 285 282 278 282 265" fill="none" stroke="#d4af37" stroke-width="7" stroke-linecap="round"/>
    <!-- Diagonal strike-through -->
    <line x1="220" y1="310" x2="292" y2="210" stroke="#d4af37" stroke-width="7" stroke-linecap="round"/>
  </g>
</svg>
