<?xml version="1.0" encoding="UTF-8"?>
<svg xmlns="http://www.w3.org/2000/svg" viewBox="0 0 512 512" width="512" height="512">
  <defs>
    <clipPath id="circle-clip">
      <circle cx="256" cy="256" r="240"/>
    </clipPath>
  </defs>
  <circle cx="256" cy="256" r="240" fill="#0a1628"/>
  <circle cx="256" cy="256" r="240" fill="none" stroke="#d4af37" stroke-width="4"/>
  <g clip-path="url(#circle-clip)" transform="translate(256,256) scale(1.4) translate(-256,-256)">
    <!-- Heart shape - centered at 256,256 -->
    <path d="M256 341 C256 341 166 271 166 221 C166 191 186 171 216 171 C236 171 250 183 256 197 C262 183 276 171 296 171 C326 171 346 191 346 221 C346 271 256 341 256 341Z" fill="none" stroke="#d4af37" stroke-width="7"/>
    <!-- Pulse line centered -->
    <polyline points="166,262 216,262 236,222 256,302 276,222 296,262 346,262" fill="none" stroke="#d4af37" stroke-width="6" stroke-linecap="round" stroke-linejoin="round"/>
  </g>
</svg>
